<mxfile host="65bd71144e">
    <diagram id="DSLvG6zoLwlgyaQH9Rrg" name="Ver0.1">
        <mxGraphModel dx="1649" dy="1702" grid="1" gridSize="10" guides="1" tooltips="1" connect="1" arrows="1" fold="1" page="1" pageScale="1" pageWidth="827" pageHeight="1169" math="0" shadow="0">
            <root>
                <mxCell id="0"/>
                <mxCell id="1" parent="0"/>
                <mxCell id="e0FOGdU5NT8q8KR8ZKs0-4" style="rounded=0;orthogonalLoop=1;jettySize=auto;html=1;entryX=0;entryY=0.5;entryDx=0;entryDy=0;dashed=1;endArrow=open;endFill=0;" parent="1" source="e0FOGdU5NT8q8KR8ZKs0-1" target="e0FOGdU5NT8q8KR8ZKs0-3" edge="1">
                    <mxGeometry relative="1" as="geometry"/>
                </mxCell>
                <mxCell id="e0FOGdU5NT8q8KR8ZKs0-9" style="edgeStyle=none;rounded=0;orthogonalLoop=1;jettySize=auto;html=1;startArrow=none;startFill=0;endArrow=open;endFill=0;entryX=0;entryY=0.5;entryDx=0;entryDy=0;dashed=1;" parent="1" source="e0FOGdU5NT8q8KR8ZKs0-1" target="e0FOGdU5NT8q8KR8ZKs0-7" edge="1">
                    <mxGeometry relative="1" as="geometry"/>
                </mxCell>
                <mxCell id="e0FOGdU5NT8q8KR8ZKs0-12" style="edgeStyle=none;rounded=0;orthogonalLoop=1;jettySize=auto;html=1;startArrow=none;startFill=0;endArrow=open;endFill=0;entryX=0;entryY=0.5;entryDx=0;entryDy=0;dashed=1;" parent="1" source="e0FOGdU5NT8q8KR8ZKs0-1" target="e0FOGdU5NT8q8KR8ZKs0-10" edge="1">
                    <mxGeometry relative="1" as="geometry"/>
                </mxCell>
                <mxCell id="e0FOGdU5NT8q8KR8ZKs0-28" style="edgeStyle=none;rounded=0;orthogonalLoop=1;jettySize=auto;html=1;startArrow=open;startFill=0;endArrow=none;endFill=0;entryX=0;entryY=0.5;entryDx=0;entryDy=0;dashed=1;" parent="1" source="e0FOGdU5NT8q8KR8ZKs0-36" target="e0FOGdU5NT8q8KR8ZKs0-27" edge="1">
                    <mxGeometry relative="1" as="geometry"/>
                </mxCell>
                <mxCell id="e0FOGdU5NT8q8KR8ZKs0-37" style="edgeStyle=none;rounded=0;orthogonalLoop=1;jettySize=auto;html=1;entryX=0;entryY=0.5;entryDx=0;entryDy=0;dashed=1;startArrow=none;startFill=0;endArrow=open;endFill=0;" parent="1" source="e0FOGdU5NT8q8KR8ZKs0-1" target="e0FOGdU5NT8q8KR8ZKs0-36" edge="1">
                    <mxGeometry relative="1" as="geometry"/>
                </mxCell>
                <mxCell id="e0FOGdU5NT8q8KR8ZKs0-39" style="edgeStyle=none;rounded=0;orthogonalLoop=1;jettySize=auto;html=1;entryX=0;entryY=0.5;entryDx=0;entryDy=0;dashed=1;startArrow=none;startFill=0;endArrow=open;endFill=0;" parent="1" source="e0FOGdU5NT8q8KR8ZKs0-1" target="e0FOGdU5NT8q8KR8ZKs0-38" edge="1">
                    <mxGeometry relative="1" as="geometry"/>
                </mxCell>
                <mxCell id="e0FOGdU5NT8q8KR8ZKs0-1" value="農家" style="shape=umlActor;verticalLabelPosition=bottom;verticalAlign=top;html=1;outlineConnect=0;" parent="1" vertex="1">
                    <mxGeometry x="50" y="330" width="30" height="60" as="geometry"/>
                </mxCell>
                <mxCell id="e0FOGdU5NT8q8KR8ZKs0-2" value="収穫機" style="shape=umlActor;verticalLabelPosition=bottom;verticalAlign=top;html=1;outlineConnect=0;" parent="1" vertex="1">
                    <mxGeometry x="1110" y="160" width="30" height="60" as="geometry"/>
                </mxCell>
                <mxCell id="e0FOGdU5NT8q8KR8ZKs0-3" value="農耕地登録" style="ellipse;whiteSpace=wrap;html=1;" parent="1" vertex="1">
                    <mxGeometry x="480" y="200" width="120" height="80" as="geometry"/>
                </mxCell>
                <mxCell id="e0FOGdU5NT8q8KR8ZKs0-24" style="edgeStyle=none;rounded=0;orthogonalLoop=1;jettySize=auto;html=1;startArrow=none;startFill=0;endArrow=open;endFill=0;dashed=1;" parent="1" source="e0FOGdU5NT8q8KR8ZKs0-7" target="e0FOGdU5NT8q8KR8ZKs0-3" edge="1">
                    <mxGeometry relative="1" as="geometry"/>
                </mxCell>
                <mxCell id="e0FOGdU5NT8q8KR8ZKs0-7" value="機械登録" style="ellipse;whiteSpace=wrap;html=1;" parent="1" vertex="1">
                    <mxGeometry x="480" y="300" width="120" height="80" as="geometry"/>
                </mxCell>
                <mxCell id="e0FOGdU5NT8q8KR8ZKs0-10" value="データを確認" style="ellipse;whiteSpace=wrap;html=1;" parent="1" vertex="1">
                    <mxGeometry x="480" y="390" width="120" height="80" as="geometry"/>
                </mxCell>
                <mxCell id="e0FOGdU5NT8q8KR8ZKs0-18" value="温度データ" style="ellipse;whiteSpace=wrap;html=1;" parent="1" vertex="1">
                    <mxGeometry x="1160" y="170" width="120" height="80" as="geometry"/>
                </mxCell>
                <mxCell id="e0FOGdU5NT8q8KR8ZKs0-19" value="湿度データ" style="ellipse;whiteSpace=wrap;html=1;" parent="1" vertex="1">
                    <mxGeometry x="1280" y="170" width="120" height="80" as="geometry"/>
                </mxCell>
                <mxCell id="e0FOGdU5NT8q8KR8ZKs0-20" value="収穫数" style="ellipse;whiteSpace=wrap;html=1;" parent="1" vertex="1">
                    <mxGeometry x="1400" y="170" width="120" height="80" as="geometry"/>
                </mxCell>
                <mxCell id="e0FOGdU5NT8q8KR8ZKs0-21" value="未収穫数" style="ellipse;whiteSpace=wrap;html=1;" parent="1" vertex="1">
                    <mxGeometry x="1520" y="170" width="120" height="80" as="geometry"/>
                </mxCell>
                <mxCell id="e0FOGdU5NT8q8KR8ZKs0-27" value="最小収穫サイズ登録" style="ellipse;whiteSpace=wrap;html=1;" parent="1" vertex="1">
                    <mxGeometry x="301.42" y="90" width="120" height="80" as="geometry"/>
                </mxCell>
                <mxCell id="e0FOGdU5NT8q8KR8ZKs0-33" style="edgeStyle=none;rounded=0;orthogonalLoop=1;jettySize=auto;html=1;startArrow=open;startFill=0;endArrow=none;endFill=0;dashed=1;" parent="1" source="e0FOGdU5NT8q8KR8ZKs0-31" target="e0FOGdU5NT8q8KR8ZKs0-2" edge="1">
                    <mxGeometry relative="1" as="geometry"/>
                </mxCell>
                <mxCell id="e0FOGdU5NT8q8KR8ZKs0-35" style="edgeStyle=none;rounded=0;orthogonalLoop=1;jettySize=auto;html=1;startArrow=open;startFill=0;endArrow=none;endFill=0;dashed=1;" parent="1" source="e0FOGdU5NT8q8KR8ZKs0-34" target="e0FOGdU5NT8q8KR8ZKs0-2" edge="1">
                    <mxGeometry relative="1" as="geometry"/>
                </mxCell>
                <mxCell id="e0FOGdU5NT8q8KR8ZKs0-36" value="機械指示" style="ellipse;whiteSpace=wrap;html=1;" parent="1" vertex="1">
                    <mxGeometry x="140" y="80" width="120" height="80" as="geometry"/>
                </mxCell>
                <mxCell id="e0FOGdU5NT8q8KR8ZKs0-38" value="ユーザー登録" style="ellipse;whiteSpace=wrap;html=1;" parent="1" vertex="1">
                    <mxGeometry x="140" y="490" width="120" height="80" as="geometry"/>
                </mxCell>
                <mxCell id="e0FOGdU5NT8q8KR8ZKs0-52" value="" style="group" parent="1" vertex="1" connectable="0">
                    <mxGeometry x="620" y="-150" width="450" height="740" as="geometry"/>
                </mxCell>
                <mxCell id="e0FOGdU5NT8q8KR8ZKs0-49" value="" style="rounded=0;whiteSpace=wrap;html=1;fillColor=none;strokeColor=#0000FF;strokeWidth=6;" parent="e0FOGdU5NT8q8KR8ZKs0-52" vertex="1">
                    <mxGeometry y="50" width="450" height="690" as="geometry"/>
                </mxCell>
                <mxCell id="e0FOGdU5NT8q8KR8ZKs0-34" value="収穫" style="ellipse;whiteSpace=wrap;html=1;" parent="e0FOGdU5NT8q8KR8ZKs0-52" vertex="1">
                    <mxGeometry x="201.31578947368422" y="380" width="142.10526315789474" height="80" as="geometry"/>
                </mxCell>
                <mxCell id="e0FOGdU5NT8q8KR8ZKs0-70" value="収穫システム" style="text;html=1;strokeColor=#0000FF;fillColor=none;align=center;verticalAlign=middle;whiteSpace=wrap;rounded=0;strokeWidth=7;" parent="e0FOGdU5NT8q8KR8ZKs0-52" vertex="1">
                    <mxGeometry x="190.0014285714285" y="18.830000000000013" width="242.85714285714286" height="31.168831168831165" as="geometry"/>
                </mxCell>
                <mxCell id="e0FOGdU5NT8q8KR8ZKs0-56" value="終了イベントを発行" style="ellipse;whiteSpace=wrap;html=1;" parent="1" vertex="1">
                    <mxGeometry x="301.42" width="120" height="80" as="geometry"/>
                </mxCell>
                <mxCell id="e0FOGdU5NT8q8KR8ZKs0-57" style="edgeStyle=none;rounded=0;orthogonalLoop=1;jettySize=auto;html=1;startArrow=open;startFill=0;endArrow=none;endFill=0;entryX=0;entryY=0.5;entryDx=0;entryDy=0;dashed=1;" parent="1" source="e0FOGdU5NT8q8KR8ZKs0-36" target="e0FOGdU5NT8q8KR8ZKs0-56" edge="1">
                    <mxGeometry relative="1" as="geometry">
                        <mxPoint x="262.67373437486185" y="110.84591477277763" as="sourcePoint"/>
                        <mxPoint x="320" y="90" as="targetPoint"/>
                    </mxGeometry>
                </mxCell>
                <mxCell id="e0FOGdU5NT8q8KR8ZKs0-63" style="edgeStyle=none;rounded=0;orthogonalLoop=1;jettySize=auto;html=1;dashed=1;startArrow=none;startFill=0;endArrow=open;endFill=0;exitX=0;exitY=0.5;exitDx=0;exitDy=0;" parent="1" source="e0FOGdU5NT8q8KR8ZKs0-62" target="e0FOGdU5NT8q8KR8ZKs0-36" edge="1">
                    <mxGeometry relative="1" as="geometry"/>
                </mxCell>
                <mxCell id="e0FOGdU5NT8q8KR8ZKs0-62" value="開始イベントを発行" style="ellipse;whiteSpace=wrap;html=1;" parent="1" vertex="1">
                    <mxGeometry x="301.42" y="-90" width="120" height="80" as="geometry"/>
                </mxCell>
                <mxCell id="e0FOGdU5NT8q8KR8ZKs0-66" style="edgeStyle=none;rounded=0;orthogonalLoop=1;jettySize=auto;html=1;dashed=1;startArrow=none;startFill=0;endArrow=open;endFill=0;" parent="1" source="e0FOGdU5NT8q8KR8ZKs0-65" target="e0FOGdU5NT8q8KR8ZKs0-38" edge="1">
                    <mxGeometry relative="1" as="geometry"/>
                </mxCell>
                <mxCell id="e0FOGdU5NT8q8KR8ZKs0-65" value="ユーザー情報を登録する" style="ellipse;whiteSpace=wrap;html=1;" parent="1" vertex="1">
                    <mxGeometry x="480" y="490" width="120" height="80" as="geometry"/>
                </mxCell>
                <mxCell id="e0FOGdU5NT8q8KR8ZKs0-48" value="アプリケーション" style="text;html=1;strokeColor=#FF0000;fillColor=none;align=center;verticalAlign=middle;whiteSpace=wrap;rounded=0;strokeWidth=7;" parent="1" vertex="1">
                    <mxGeometry x="174.28571428571428" y="-130" width="221.42857142857144" height="30" as="geometry"/>
                </mxCell>
                <mxCell id="e0FOGdU5NT8q8KR8ZKs0-71" style="edgeStyle=none;rounded=0;orthogonalLoop=1;jettySize=auto;html=1;exitX=0;exitY=0.5;exitDx=0;exitDy=0;dashed=1;startArrow=none;startFill=0;endArrow=open;endFill=0;" parent="1" source="e0FOGdU5NT8q8KR8ZKs0-47" edge="1">
                    <mxGeometry relative="1" as="geometry">
                        <mxPoint x="390" y="250.00000000000045" as="targetPoint"/>
                    </mxGeometry>
                </mxCell>
                <mxCell id="e0FOGdU5NT8q8KR8ZKs0-47" value="" style="rounded=0;whiteSpace=wrap;html=1;fillColor=none;strokeColor=#FF0000;strokeWidth=6;" parent="1" vertex="1">
                    <mxGeometry x="110" y="-100" width="500" height="690" as="geometry"/>
                </mxCell>
                <mxCell id="e0FOGdU5NT8q8KR8ZKs0-58" value="" style="group" parent="1" vertex="1" connectable="0">
                    <mxGeometry x="450" y="-67.66233766233768" width="350" height="737.6623376623376" as="geometry"/>
                </mxCell>
                <mxCell id="e0FOGdU5NT8q8KR8ZKs0-31" value="データアップロード" style="ellipse;whiteSpace=wrap;html=1;" parent="e0FOGdU5NT8q8KR8ZKs0-58" vertex="1">
                    <mxGeometry x="200" y="127.66233766233768" width="120" height="80" as="geometry"/>
                </mxCell>
                <mxCell id="e0FOGdU5NT8q8KR8ZKs0-68" value="" style="rounded=0;whiteSpace=wrap;html=1;strokeColor=#00CC66;fillColor=none;strokeWidth=7;" parent="e0FOGdU5NT8q8KR8ZKs0-58" vertex="1">
                    <mxGeometry x="10" y="-31.17" width="330" height="691.17" as="geometry"/>
                </mxCell>
                <mxCell id="e0FOGdU5NT8q8KR8ZKs0-60" value="データベース" style="text;html=1;strokeColor=#00CC66;fillColor=none;align=center;verticalAlign=middle;whiteSpace=wrap;rounded=0;strokeWidth=7;" parent="1" vertex="1">
                    <mxGeometry x="498.5714285714285" y="-130" width="242.85714285714286" height="31.168831168831165" as="geometry"/>
                </mxCell>
            </root>
        </mxGraphModel>
    </diagram>
    <diagram name="Ver0.2" id="Mnsx-vp9pJlhAQN46An5">
        <mxGraphModel dx="1798" dy="1879" grid="1" gridSize="10" guides="1" tooltips="1" connect="1" arrows="1" fold="1" page="1" pageScale="1" pageWidth="827" pageHeight="1169" math="0" shadow="0">
            <root>
                <mxCell id="pk-NWNZrzRWGsfQepHAo-0"/>
                <mxCell id="pk-NWNZrzRWGsfQepHAo-1" parent="pk-NWNZrzRWGsfQepHAo-0"/>
                <mxCell id="pk-NWNZrzRWGsfQepHAo-2" style="rounded=0;orthogonalLoop=1;jettySize=auto;html=1;entryX=0;entryY=0.5;entryDx=0;entryDy=0;dashed=1;endArrow=open;endFill=0;" edge="1" parent="pk-NWNZrzRWGsfQepHAo-1" source="pk-NWNZrzRWGsfQepHAo-8" target="pk-NWNZrzRWGsfQepHAo-10">
                    <mxGeometry relative="1" as="geometry"/>
                </mxCell>
                <mxCell id="pk-NWNZrzRWGsfQepHAo-3" style="edgeStyle=none;rounded=0;orthogonalLoop=1;jettySize=auto;html=1;startArrow=none;startFill=0;endArrow=open;endFill=0;entryX=0;entryY=0.5;entryDx=0;entryDy=0;dashed=1;" edge="1" parent="pk-NWNZrzRWGsfQepHAo-1" source="pk-NWNZrzRWGsfQepHAo-8" target="pk-NWNZrzRWGsfQepHAo-12">
                    <mxGeometry relative="1" as="geometry"/>
                </mxCell>
                <mxCell id="pk-NWNZrzRWGsfQepHAo-4" style="edgeStyle=none;rounded=0;orthogonalLoop=1;jettySize=auto;html=1;startArrow=none;startFill=0;endArrow=open;endFill=0;entryX=0;entryY=0.5;entryDx=0;entryDy=0;dashed=1;" edge="1" parent="pk-NWNZrzRWGsfQepHAo-1" source="pk-NWNZrzRWGsfQepHAo-8" target="pk-NWNZrzRWGsfQepHAo-13">
                    <mxGeometry relative="1" as="geometry"/>
                </mxCell>
                <mxCell id="pk-NWNZrzRWGsfQepHAo-5" style="edgeStyle=none;rounded=0;orthogonalLoop=1;jettySize=auto;html=1;startArrow=open;startFill=0;endArrow=none;endFill=0;entryX=0;entryY=0.5;entryDx=0;entryDy=0;dashed=1;" edge="1" parent="pk-NWNZrzRWGsfQepHAo-1" source="pk-NWNZrzRWGsfQepHAo-21" target="pk-NWNZrzRWGsfQepHAo-18">
                    <mxGeometry relative="1" as="geometry"/>
                </mxCell>
                <mxCell id="pk-NWNZrzRWGsfQepHAo-6" style="edgeStyle=none;rounded=0;orthogonalLoop=1;jettySize=auto;html=1;entryX=0;entryY=0.5;entryDx=0;entryDy=0;dashed=1;startArrow=none;startFill=0;endArrow=open;endFill=0;" edge="1" parent="pk-NWNZrzRWGsfQepHAo-1" source="pk-NWNZrzRWGsfQepHAo-8" target="pk-NWNZrzRWGsfQepHAo-21">
                    <mxGeometry relative="1" as="geometry"/>
                </mxCell>
                <mxCell id="pk-NWNZrzRWGsfQepHAo-7" style="edgeStyle=none;rounded=0;orthogonalLoop=1;jettySize=auto;html=1;entryX=0;entryY=0.5;entryDx=0;entryDy=0;dashed=1;startArrow=none;startFill=0;endArrow=open;endFill=0;" edge="1" parent="pk-NWNZrzRWGsfQepHAo-1" source="pk-NWNZrzRWGsfQepHAo-8" target="pk-NWNZrzRWGsfQepHAo-22">
                    <mxGeometry relative="1" as="geometry"/>
                </mxCell>
                <mxCell id="pk-NWNZrzRWGsfQepHAo-8" value="農家" style="shape=umlActor;verticalLabelPosition=bottom;verticalAlign=top;html=1;outlineConnect=0;" vertex="1" parent="pk-NWNZrzRWGsfQepHAo-1">
                    <mxGeometry x="50" y="330" width="30" height="60" as="geometry"/>
                </mxCell>
                <mxCell id="pk-NWNZrzRWGsfQepHAo-9" value="収穫機" style="shape=umlActor;verticalLabelPosition=bottom;verticalAlign=top;html=1;outlineConnect=0;" vertex="1" parent="pk-NWNZrzRWGsfQepHAo-1">
                    <mxGeometry x="1110" y="160" width="30" height="60" as="geometry"/>
                </mxCell>
                <mxCell id="pk-NWNZrzRWGsfQepHAo-10" value="農耕地登録" style="ellipse;whiteSpace=wrap;html=1;" vertex="1" parent="pk-NWNZrzRWGsfQepHAo-1">
                    <mxGeometry x="480" y="200" width="120" height="80" as="geometry"/>
                </mxCell>
                <mxCell id="pk-NWNZrzRWGsfQepHAo-11" style="edgeStyle=none;rounded=0;orthogonalLoop=1;jettySize=auto;html=1;startArrow=none;startFill=0;endArrow=open;endFill=0;dashed=1;" edge="1" parent="pk-NWNZrzRWGsfQepHAo-1" source="pk-NWNZrzRWGsfQepHAo-12" target="pk-NWNZrzRWGsfQepHAo-10">
                    <mxGeometry relative="1" as="geometry"/>
                </mxCell>
                <mxCell id="pk-NWNZrzRWGsfQepHAo-12" value="機械登録" style="ellipse;whiteSpace=wrap;html=1;" vertex="1" parent="pk-NWNZrzRWGsfQepHAo-1">
                    <mxGeometry x="480" y="300" width="120" height="80" as="geometry"/>
                </mxCell>
                <mxCell id="pk-NWNZrzRWGsfQepHAo-13" value="データを参照" style="ellipse;whiteSpace=wrap;html=1;" vertex="1" parent="pk-NWNZrzRWGsfQepHAo-1">
                    <mxGeometry x="480" y="390" width="120" height="80" as="geometry"/>
                </mxCell>
                <mxCell id="pk-NWNZrzRWGsfQepHAo-18" value="最小収穫サイズ登録" style="ellipse;whiteSpace=wrap;html=1;" vertex="1" parent="pk-NWNZrzRWGsfQepHAo-1">
                    <mxGeometry x="301.42" y="90" width="120" height="80" as="geometry"/>
                </mxCell>
                <mxCell id="pk-NWNZrzRWGsfQepHAo-19" style="edgeStyle=none;rounded=0;orthogonalLoop=1;jettySize=auto;html=1;startArrow=open;startFill=0;endArrow=none;endFill=0;dashed=1;" edge="1" parent="pk-NWNZrzRWGsfQepHAo-1" source="pk-NWNZrzRWGsfQepHAo-37" target="pk-NWNZrzRWGsfQepHAo-9">
                    <mxGeometry relative="1" as="geometry"/>
                </mxCell>
                <mxCell id="pk-NWNZrzRWGsfQepHAo-20" style="edgeStyle=none;rounded=0;orthogonalLoop=1;jettySize=auto;html=1;startArrow=open;startFill=0;endArrow=none;endFill=0;dashed=1;" edge="1" parent="pk-NWNZrzRWGsfQepHAo-1" source="pk-NWNZrzRWGsfQepHAo-25" target="pk-NWNZrzRWGsfQepHAo-9">
                    <mxGeometry relative="1" as="geometry"/>
                </mxCell>
                <mxCell id="pk-NWNZrzRWGsfQepHAo-21" value="機械指示" style="ellipse;whiteSpace=wrap;html=1;" vertex="1" parent="pk-NWNZrzRWGsfQepHAo-1">
                    <mxGeometry x="140" y="80" width="120" height="80" as="geometry"/>
                </mxCell>
                <mxCell id="pk-NWNZrzRWGsfQepHAo-22" value="ログイン" style="ellipse;whiteSpace=wrap;html=1;" vertex="1" parent="pk-NWNZrzRWGsfQepHAo-1">
                    <mxGeometry x="140" y="490" width="120" height="80" as="geometry"/>
                </mxCell>
                <mxCell id="pk-NWNZrzRWGsfQepHAo-23" value="" style="group" vertex="1" connectable="0" parent="pk-NWNZrzRWGsfQepHAo-1">
                    <mxGeometry x="620" y="-150" width="450" height="740" as="geometry"/>
                </mxCell>
                <mxCell id="pk-NWNZrzRWGsfQepHAo-24" value="" style="rounded=0;whiteSpace=wrap;html=1;fillColor=none;strokeColor=#0000FF;strokeWidth=6;" vertex="1" parent="pk-NWNZrzRWGsfQepHAo-23">
                    <mxGeometry y="50" width="450.00000000000006" height="690" as="geometry"/>
                </mxCell>
                <mxCell id="pk-NWNZrzRWGsfQepHAo-25" value="収穫" style="ellipse;whiteSpace=wrap;html=1;" vertex="1" parent="pk-NWNZrzRWGsfQepHAo-23">
                    <mxGeometry x="201.3157894736842" y="380" width="142.1052631578947" height="80" as="geometry"/>
                </mxCell>
                <mxCell id="pk-NWNZrzRWGsfQepHAo-26" value="収穫システム" style="text;html=1;strokeColor=#0000FF;fillColor=none;align=center;verticalAlign=middle;whiteSpace=wrap;rounded=0;strokeWidth=7;" vertex="1" parent="pk-NWNZrzRWGsfQepHAo-23">
                    <mxGeometry x="190.0014285714285" y="18.830000000000013" width="242.8571428571428" height="31.168831168831165" as="geometry"/>
                </mxCell>
                <mxCell id="Y5mZydLGhkcx6VZ7jnlC-15" value="&amp;lt;include&amp;gt;" style="text;html=1;align=center;verticalAlign=middle;resizable=0;points=[];autosize=1;strokeColor=none;fillColor=none;" vertex="1" parent="pk-NWNZrzRWGsfQepHAo-23">
                    <mxGeometry x="350" y="400" width="70" height="20" as="geometry"/>
                </mxCell>
                <mxCell id="pk-NWNZrzRWGsfQepHAo-27" value="終了イベントを発行" style="ellipse;whiteSpace=wrap;html=1;" vertex="1" parent="pk-NWNZrzRWGsfQepHAo-1">
                    <mxGeometry x="301.42" width="120" height="80" as="geometry"/>
                </mxCell>
                <mxCell id="pk-NWNZrzRWGsfQepHAo-28" style="edgeStyle=none;rounded=0;orthogonalLoop=1;jettySize=auto;html=1;startArrow=open;startFill=0;endArrow=none;endFill=0;entryX=0;entryY=0.5;entryDx=0;entryDy=0;dashed=1;" edge="1" parent="pk-NWNZrzRWGsfQepHAo-1" source="pk-NWNZrzRWGsfQepHAo-21" target="pk-NWNZrzRWGsfQepHAo-27">
                    <mxGeometry relative="1" as="geometry">
                        <mxPoint x="262.67373437486185" y="110.84591477277763" as="sourcePoint"/>
                        <mxPoint x="320" y="90" as="targetPoint"/>
                    </mxGeometry>
                </mxCell>
                <mxCell id="pk-NWNZrzRWGsfQepHAo-29" style="edgeStyle=none;rounded=0;orthogonalLoop=1;jettySize=auto;html=1;dashed=1;startArrow=none;startFill=0;endArrow=open;endFill=0;exitX=0;exitY=0.5;exitDx=0;exitDy=0;" edge="1" parent="pk-NWNZrzRWGsfQepHAo-1" source="pk-NWNZrzRWGsfQepHAo-30" target="pk-NWNZrzRWGsfQepHAo-21">
                    <mxGeometry relative="1" as="geometry"/>
                </mxCell>
                <mxCell id="pk-NWNZrzRWGsfQepHAo-30" value="開始イベントを発行" style="ellipse;whiteSpace=wrap;html=1;" vertex="1" parent="pk-NWNZrzRWGsfQepHAo-1">
                    <mxGeometry x="301.42" y="-90" width="120" height="80" as="geometry"/>
                </mxCell>
                <mxCell id="pk-NWNZrzRWGsfQepHAo-31" style="edgeStyle=none;rounded=0;orthogonalLoop=1;jettySize=auto;html=1;dashed=1;startArrow=none;startFill=0;endArrow=open;endFill=0;" edge="1" parent="pk-NWNZrzRWGsfQepHAo-1" source="pk-NWNZrzRWGsfQepHAo-32" target="pk-NWNZrzRWGsfQepHAo-22">
                    <mxGeometry relative="1" as="geometry"/>
                </mxCell>
                <mxCell id="pk-NWNZrzRWGsfQepHAo-32" value="ユーザー情報を登録" style="ellipse;whiteSpace=wrap;html=1;" vertex="1" parent="pk-NWNZrzRWGsfQepHAo-1">
                    <mxGeometry x="480" y="490" width="120" height="80" as="geometry"/>
                </mxCell>
                <mxCell id="pk-NWNZrzRWGsfQepHAo-33" value="アプリケーション" style="text;html=1;strokeColor=#FF0000;fillColor=none;align=center;verticalAlign=middle;whiteSpace=wrap;rounded=0;strokeWidth=7;" vertex="1" parent="pk-NWNZrzRWGsfQepHAo-1">
                    <mxGeometry x="174.28571428571428" y="-130" width="221.42857142857144" height="30" as="geometry"/>
                </mxCell>
                <mxCell id="pk-NWNZrzRWGsfQepHAo-35" value="" style="rounded=0;whiteSpace=wrap;html=1;fillColor=none;strokeColor=#FF0000;strokeWidth=6;" vertex="1" parent="pk-NWNZrzRWGsfQepHAo-1">
                    <mxGeometry x="110" y="-100" width="500" height="690" as="geometry"/>
                </mxCell>
                <mxCell id="pk-NWNZrzRWGsfQepHAo-36" value="" style="group" vertex="1" connectable="0" parent="pk-NWNZrzRWGsfQepHAo-1">
                    <mxGeometry x="440" y="-67.66" width="390" height="737.66" as="geometry"/>
                </mxCell>
                <mxCell id="pk-NWNZrzRWGsfQepHAo-37" value="データアップロード" style="ellipse;whiteSpace=wrap;html=1;" vertex="1" parent="pk-NWNZrzRWGsfQepHAo-36">
                    <mxGeometry x="222.8571428571429" y="127.66193309859158" width="133.71428571428575" height="79.99974647887325" as="geometry"/>
                </mxCell>
                <mxCell id="pk-NWNZrzRWGsfQepHAo-38" value="" style="rounded=0;whiteSpace=wrap;html=1;strokeColor=#00CC66;fillColor=none;strokeWidth=7;" vertex="1" parent="pk-NWNZrzRWGsfQepHAo-36">
                    <mxGeometry x="10" y="-31.17" width="360.5" height="691.17" as="geometry"/>
                </mxCell>
                <mxCell id="pk-NWNZrzRWGsfQepHAo-39" value="データベース" style="text;html=1;strokeColor=#00CC66;fillColor=none;align=center;verticalAlign=middle;whiteSpace=wrap;rounded=0;strokeWidth=7;" vertex="1" parent="pk-NWNZrzRWGsfQepHAo-1">
                    <mxGeometry x="498.5714285714285" y="-130" width="242.85714285714286" height="31.168831168831165" as="geometry"/>
                </mxCell>
                <mxCell id="Y5mZydLGhkcx6VZ7jnlC-1" style="edgeStyle=none;html=1;dashed=1;endArrow=open;endFill=0;" edge="1" parent="pk-NWNZrzRWGsfQepHAo-1" source="pk-NWNZrzRWGsfQepHAo-8" target="Y5mZydLGhkcx6VZ7jnlC-0">
                    <mxGeometry relative="1" as="geometry"/>
                </mxCell>
                <mxCell id="Y5mZydLGhkcx6VZ7jnlC-0" value="登録情報の参照" style="ellipse;whiteSpace=wrap;html=1;" vertex="1" parent="pk-NWNZrzRWGsfQepHAo-1">
                    <mxGeometry x="480" y="100" width="120" height="80" as="geometry"/>
                </mxCell>
                <mxCell id="Y5mZydLGhkcx6VZ7jnlC-2" value="&amp;lt;include&amp;gt;" style="text;html=1;align=center;verticalAlign=middle;resizable=0;points=[];autosize=1;strokeColor=none;fillColor=none;" vertex="1" parent="pk-NWNZrzRWGsfQepHAo-1">
                    <mxGeometry x="280" y="220" width="70" height="20" as="geometry"/>
                </mxCell>
                <mxCell id="Y5mZydLGhkcx6VZ7jnlC-3" value="&amp;lt;include&amp;gt;" style="text;html=1;align=center;verticalAlign=middle;resizable=0;points=[];autosize=1;strokeColor=none;fillColor=none;" vertex="1" parent="pk-NWNZrzRWGsfQepHAo-1">
                    <mxGeometry x="280" y="270" width="70" height="20" as="geometry"/>
                </mxCell>
                <mxCell id="Y5mZydLGhkcx6VZ7jnlC-4" value="&amp;lt;include&amp;gt;" style="text;html=1;align=center;verticalAlign=middle;resizable=0;points=[];autosize=1;strokeColor=none;fillColor=none;" vertex="1" parent="pk-NWNZrzRWGsfQepHAo-1">
                    <mxGeometry x="280" y="330" width="70" height="20" as="geometry"/>
                </mxCell>
                <mxCell id="Y5mZydLGhkcx6VZ7jnlC-5" value="&amp;lt;include&amp;gt;" style="text;html=1;align=center;verticalAlign=middle;resizable=0;points=[];autosize=1;strokeColor=none;fillColor=none;" vertex="1" parent="pk-NWNZrzRWGsfQepHAo-1">
                    <mxGeometry x="280" y="380" width="70" height="20" as="geometry"/>
                </mxCell>
                <mxCell id="Y5mZydLGhkcx6VZ7jnlC-6" value="&amp;lt;include&amp;gt;" style="text;html=1;align=center;verticalAlign=middle;resizable=0;points=[];autosize=1;strokeColor=none;fillColor=none;" vertex="1" parent="pk-NWNZrzRWGsfQepHAo-1">
                    <mxGeometry x="280" y="510" width="70" height="20" as="geometry"/>
                </mxCell>
                <mxCell id="Y5mZydLGhkcx6VZ7jnlC-7" value="&amp;lt;include&amp;gt;" style="text;html=1;align=center;verticalAlign=middle;resizable=0;points=[];autosize=1;strokeColor=none;fillColor=none;" vertex="1" parent="pk-NWNZrzRWGsfQepHAo-1">
                    <mxGeometry x="250" y="150" width="70" height="20" as="geometry"/>
                </mxCell>
                <mxCell id="Y5mZydLGhkcx6VZ7jnlC-8" value="&amp;lt;include&amp;gt;" style="text;html=1;align=center;verticalAlign=middle;resizable=0;points=[];autosize=1;strokeColor=none;fillColor=none;" vertex="1" parent="pk-NWNZrzRWGsfQepHAo-1">
                    <mxGeometry x="240" y="60" width="70" height="20" as="geometry"/>
                </mxCell>
                <mxCell id="Y5mZydLGhkcx6VZ7jnlC-9" value="&amp;lt;include&amp;gt;" style="text;html=1;align=center;verticalAlign=middle;resizable=0;points=[];autosize=1;strokeColor=none;fillColor=none;" vertex="1" parent="pk-NWNZrzRWGsfQepHAo-1">
                    <mxGeometry x="220" y="-10" width="70" height="20" as="geometry"/>
                </mxCell>
                <mxCell id="Y5mZydLGhkcx6VZ7jnlC-12" value="&lt;span&gt;温度データ&lt;br&gt;&lt;/span&gt;湿度データ&lt;br&gt;収穫数&lt;br&gt;未収穫数&lt;br&gt;収穫写真&lt;br&gt;未収穫写真&lt;span&gt;&lt;br&gt;&lt;/span&gt;" style="whiteSpace=wrap;html=1;aspect=fixed;" vertex="1" parent="pk-NWNZrzRWGsfQepHAo-1">
                    <mxGeometry x="1150" y="130" width="120" height="120" as="geometry"/>
                </mxCell>
                <mxCell id="Y5mZydLGhkcx6VZ7jnlC-17" style="edgeStyle=none;html=1;dashed=1;endArrow=none;endFill=0;" edge="1" parent="pk-NWNZrzRWGsfQepHAo-1" source="Y5mZydLGhkcx6VZ7jnlC-13" target="Y5mZydLGhkcx6VZ7jnlC-12">
                    <mxGeometry relative="1" as="geometry"/>
                </mxCell>
                <mxCell id="Y5mZydLGhkcx6VZ7jnlC-13" value="メモ：&lt;br&gt;収穫機は起動の度にデータを取得。&lt;br&gt;機械がインターネットにつながっている状態でアップロードが行われる。&lt;br&gt;行われるデータに関しては左記参照してください。" style="shape=card;whiteSpace=wrap;html=1;" vertex="1" parent="pk-NWNZrzRWGsfQepHAo-1">
                    <mxGeometry x="1290" y="30" width="250" height="180" as="geometry"/>
                </mxCell>
                <mxCell id="Y5mZydLGhkcx6VZ7jnlC-14" value="&amp;lt;include&amp;gt;" style="text;html=1;align=center;verticalAlign=middle;resizable=0;points=[];autosize=1;strokeColor=none;fillColor=none;" vertex="1" parent="pk-NWNZrzRWGsfQepHAo-1">
                    <mxGeometry x="910" y="120" width="70" height="20" as="geometry"/>
                </mxCell>
                <mxCell id="Y5mZydLGhkcx6VZ7jnlC-18" style="edgeStyle=none;html=1;dashed=1;endArrow=none;endFill=0;" edge="1" parent="pk-NWNZrzRWGsfQepHAo-1" source="Y5mZydLGhkcx6VZ7jnlC-16" target="pk-NWNZrzRWGsfQepHAo-25">
                    <mxGeometry relative="1" as="geometry"/>
                </mxCell>
                <mxCell id="Y5mZydLGhkcx6VZ7jnlC-16" value="メモ：&lt;br&gt;収穫機能の詳細については別途資料を参考にしてください。" style="shape=card;whiteSpace=wrap;html=1;" vertex="1" parent="pk-NWNZrzRWGsfQepHAo-1">
                    <mxGeometry x="1210" y="400" width="250" height="180" as="geometry"/>
                </mxCell>
            </root>
        </mxGraphModel>
    </diagram>
</mxfile>